<?xml version="1.0" encoding="utf-8"?>
<svg width="281" height="203" viewBox="0 0 281 203" fill="none" xmlns="http://www.w3.org/2000/svg">
  <rect width="280.158" height="203" rx="20" fill="white" fill-opacity="0.15"/>
  <g clip-path="url(#clip0_1128_3596)">
    <rect x="16" y="16" width="106.506" height="171" rx="10" fill="white"/>
    <path fill-rule="evenodd" clip-rule="evenodd" d="M60.0079 59.6075L53.869 68.0105C50.7872 72.2242 51.7487 79.6963 55.9399 82.7096L67.3302 90.8921C69.2779 92.2886 69.4505 93.685 68.5136 95.1549L70.1655 96.3798L75.9346 88.4423C79.4848 83.5426 79.1889 76.8544 73.9129 73.0327L62.424 64.7277C61.0434 63.7232 60.8955 62.3513 61.6597 60.7834L60.0079 59.6075ZM69.845 22.4431L60.2791 35.5744C55.792 41.748 57.4192 52.2579 63.5581 56.7411L79.2875 68.2065C82.4679 70.5338 82.8871 76.4625 80.5696 79.4758L81.9009 80.4802L92.7488 65.3156C97.6303 58.505 97.3345 48.4361 89.6917 42.9239L72.8774 30.7971C70.5353 29.1067 69.3519 26.2159 71.2996 23.4476L69.845 22.4431ZM44.6483 104.856H57.3206L59.5888 112.5C66.492 112.5 73.3952 112.5 80.2984 112.5L82.5666 104.856H95.2389L93.587 99.2461C77.8329 99.2461 62.0789 99.2461 46.3248 99.2461L44.6483 104.856ZM26.3055 16.0245H112.201C117.773 16.0245 122.309 20.5567 122.309 26.0689V176.931C122.309 182.468 117.748 186.976 112.201 186.976H26.3055C20.7337 186.976 16.1973 182.443 16.1973 176.931V26.0689C16.1973 20.5567 20.7337 16.0245 26.3055 16.0245ZM26.3055 16.7105H112.201C117.378 16.7105 121.619 20.9242 121.619 26.0689V176.931C121.619 182.076 117.378 186.29 112.201 186.29H26.3055C21.1281 186.29 16.8876 182.076 16.8876 176.931V26.0689C16.8876 20.9242 21.1281 16.7105 26.3055 16.7105ZM119.548 153.437V176.931C119.548 180.949 116.244 184.207 112.226 184.207H26.3055C22.2622 184.207 18.9585 180.924 18.9585 176.931V153.437H119.548ZM35.896 166.397L32.1239 157.063H30.2009L26.4041 166.397H28.5244L29.3133 164.314H32.9375L33.7265 166.397H35.896ZM32.2472 162.55H29.979L30.62 160.86C30.7186 160.591 30.8172 160.321 30.9159 160.052C31.0145 159.782 31.0638 159.586 31.1131 159.39C31.1624 159.562 31.2364 159.782 31.3103 160.052C31.409 160.321 31.5076 160.566 31.6062 160.86L32.2472 162.55ZM44.2538 158.582C43.6621 157.92 42.7499 157.308 41.887 157.063C41.5172 156.965 41.0981 156.916 40.6296 156.916C39.9886 156.916 39.3723 157.038 38.8545 157.259C38.3121 157.504 37.8437 157.822 37.4739 158.239C37.1041 158.655 36.7836 159.17 36.5617 159.758C36.3398 160.346 36.2412 161.007 36.2412 161.717C36.2412 162.452 36.3398 163.114 36.5617 163.702C36.7589 164.29 37.0548 164.804 37.4492 165.221C37.8437 165.637 38.2875 165.956 38.8052 166.201C39.323 166.421 39.9147 166.544 40.5803 166.544C41.7884 166.544 43.8594 165.882 44.4511 164.731L43.0458 163.481C42.6513 164.118 41.3939 164.682 40.6543 164.682C40.2845 164.682 39.964 164.608 39.6681 164.461C39.3723 164.314 39.1257 164.094 38.9285 163.824C38.7313 163.555 38.5833 163.236 38.4601 162.893C38.3615 162.526 38.3121 162.134 38.3121 161.717C38.3121 161.277 38.3615 160.885 38.4601 160.517C38.5587 160.15 38.7066 159.856 38.9038 159.586C39.1011 159.317 39.3476 159.121 39.6435 158.974C39.9393 158.827 40.2598 158.753 40.6296 158.753C41.3693 158.753 42.4294 159.243 42.9225 159.88L44.2538 158.582ZM63.065 166.397L60.8708 162.844C61.5118 162.624 62.2021 162.183 62.5226 161.742C62.8431 161.301 62.9911 160.713 62.9911 160.003C62.9911 159.513 62.8925 159.072 62.7199 158.704C62.5473 158.337 62.3008 158.018 61.9802 157.773C61.6597 157.528 61.3146 157.332 60.8955 157.21C60.4763 157.087 60.0326 157.038 59.5888 157.038H54.9538V166.372H56.9261V163.016L58.7012 163.089L60.7722 166.372H63.065V166.397ZM60.9448 160.052C60.9448 160.86 60.4763 161.277 59.5395 161.277H56.9508V158.876H59.5395C59.9832 158.876 60.3284 158.974 60.5749 159.145C60.8215 159.317 60.9448 159.635 60.9448 160.052ZM71.3982 166.397V164.559H66.2947V162.305H70.412V160.493H66.2947V158.876H71.2009V157.038H64.3224V166.372H71.3982V166.397ZM80.8901 161.717C80.8901 160.86 80.7668 160.15 80.5203 159.537C80.2737 158.949 79.9286 158.459 79.4848 158.092C79.041 157.724 78.5233 157.455 77.9316 157.283C77.3399 157.112 76.6742 157.038 75.9592 157.038H72.8528V166.372H75.8113C76.4523 166.372 77.0687 166.274 77.685 166.103C78.3014 165.931 78.8438 165.637 79.3122 165.27C79.7806 164.902 80.1751 164.412 80.4709 163.824C80.7421 163.261 80.8901 162.55 80.8901 161.717ZM78.8684 161.717C78.8684 162.134 78.8191 162.526 78.6958 162.893C78.5726 163.236 78.4 163.555 78.1534 163.8C77.9069 164.045 77.5864 164.241 77.2166 164.388C76.8221 164.535 76.3783 164.584 75.8606 164.584H74.8744V158.876H75.9099C76.9454 158.876 77.7097 159.121 78.1781 159.586C78.6219 160.052 78.8684 160.787 78.8684 161.717ZM84.7854 166.397V157.063H82.8131V166.397H84.7854ZM94.0308 158.9V157.063H86.3633V158.9H89.1986V166.397H91.1709V158.9H94.0308ZM111.905 161.717C111.905 160.86 111.782 160.15 111.535 159.537C111.289 158.949 110.944 158.459 110.5 158.092C110.056 157.724 109.538 157.455 108.947 157.283C108.355 157.112 107.689 157.038 106.974 157.038H103.868V166.372H106.826C107.467 166.372 108.084 166.274 108.7 166.103C109.316 165.931 109.859 165.637 110.327 165.27C110.796 164.902 111.19 164.412 111.461 163.824C111.757 163.261 111.905 162.55 111.905 161.717ZM109.883 161.717C109.883 162.134 109.834 162.526 109.711 162.893C109.588 163.236 109.415 163.555 109.169 163.8C108.922 164.045 108.601 164.241 108.232 164.388C107.862 164.535 107.393 164.584 106.876 164.584H105.889V158.876H106.95C107.985 158.876 108.749 159.121 109.218 159.586C109.637 160.052 109.883 160.787 109.883 161.717ZM102.389 166.397V164.559H97.2852V162.305H101.402V160.493H97.2852V158.876H102.191V157.038H95.3128V166.372H102.389V166.397ZM85.8209 178.475V176.637H80.7175V174.383H84.8348V172.57H80.7175V170.953H85.6237V169.116H78.7451V178.45H85.8209V178.475ZM53.4006 158.582C52.8089 157.92 51.8966 157.308 51.0337 157.063C50.6639 156.965 50.2448 156.916 49.7764 156.916C49.1354 156.916 48.519 157.038 48.0013 157.259C47.4589 157.504 46.9905 157.822 46.6206 158.239C46.2508 158.655 45.9303 159.17 45.7084 159.758C45.4865 160.346 45.3879 161.007 45.3879 161.717C45.3879 162.452 45.4865 163.114 45.7084 163.702C45.9057 164.29 46.2015 164.804 46.596 165.221C46.9904 165.637 47.4342 165.956 47.952 166.201C48.4697 166.421 49.0614 166.544 49.7271 166.544C50.9351 166.544 53.0061 165.882 53.5978 164.731L52.1925 163.481C51.798 164.118 50.5407 164.682 49.801 164.682C49.4312 164.682 49.1107 164.608 48.8149 164.461C48.519 164.314 48.2725 164.094 48.0752 163.824C47.878 163.555 47.7301 163.236 47.6068 162.893C47.5082 162.526 47.4589 162.134 47.4589 161.717C47.4589 161.277 47.5082 160.885 47.6068 160.517C47.7054 160.15 47.8533 159.856 48.0506 159.586C48.2478 159.317 48.4944 159.121 48.7902 158.974C49.0861 158.827 49.4066 158.753 49.7764 158.753C50.516 158.753 51.5761 159.243 52.0692 159.88L53.4006 158.582ZM45.314 175.437C45.314 174.922 45.1907 174.481 44.9195 174.163C44.6729 173.82 44.3278 173.575 43.958 173.403C44.2785 173.207 44.525 172.962 44.6976 172.644C44.8702 172.325 44.9688 171.982 44.9688 171.566C44.9688 170.757 44.6976 170.145 44.1306 169.729C43.5882 169.312 42.8239 169.092 41.887 169.092H37.4492V178.426H41.8377C42.3554 178.426 42.8239 178.352 43.243 178.23C43.6621 178.107 44.0319 177.911 44.3278 177.666C44.6236 177.421 44.8702 177.103 45.0181 176.711C45.2153 176.368 45.314 175.927 45.314 175.437ZM43.0211 171.737C43.0211 172.007 42.9472 172.203 42.7746 172.374C42.602 172.546 42.3308 172.619 41.9363 172.619H39.3969V170.855H41.8624C42.2815 170.855 42.5773 170.929 42.7746 171.076C42.9225 171.223 43.0211 171.443 43.0211 171.737ZM43.317 175.486C43.317 175.853 43.1937 176.147 42.9718 176.368C42.7499 176.588 42.4048 176.686 41.9363 176.686H39.3723V174.261H41.9363C42.8485 174.285 43.317 174.677 43.317 175.486ZM54.4114 174.334V169.116H52.4883V174.359C52.4883 175.118 52.3158 175.706 51.946 176.123C51.6008 176.539 51.1077 176.76 50.4914 176.76C49.875 176.76 49.3819 176.539 49.0368 176.098C48.6916 175.657 48.519 175.069 48.519 174.31V169.116H46.596V174.359C46.596 175.045 46.6946 175.657 46.8672 176.172C47.0644 176.686 47.311 177.152 47.6561 177.495C48.0013 177.862 48.4204 178.132 48.8888 178.328C49.3819 178.524 49.8997 178.597 50.4914 178.597C51.7241 178.597 52.6856 178.23 53.3759 177.47C54.0662 176.76 54.4114 175.706 54.4114 174.334ZM63.2869 175.633C63.2869 175.118 63.1883 174.702 62.9911 174.383C62.7938 174.065 62.5473 173.771 62.2268 173.575C61.9309 173.354 61.5858 173.183 61.1913 173.085C60.8215 172.962 60.427 172.864 60.0326 172.766C59.6381 172.668 59.3176 172.595 59.071 172.521C58.8245 172.448 58.6273 172.374 58.4793 172.301C58.3314 172.227 58.2328 172.129 58.1588 172.031C58.1095 171.933 58.0602 171.811 58.0602 171.639C58.0602 171.541 58.0849 171.419 58.1342 171.321C58.1835 171.223 58.2575 171.125 58.3807 171.051C58.4793 170.978 58.6273 170.904 58.7998 170.855C58.9724 170.806 59.1943 170.782 59.4409 170.782C59.8846 170.782 60.2791 170.855 60.6243 171.027C60.9694 171.198 61.3146 171.419 61.6351 171.737L63.0404 170.439C62.5719 169.974 62.0789 169.606 61.5118 169.361C60.9448 169.092 60.2791 168.969 59.5395 168.969C59.071 168.969 58.6026 169.043 58.1835 169.165C57.7644 169.288 57.3946 169.459 57.0987 169.704C56.7782 169.949 56.5317 170.219 56.3591 170.561C56.1865 170.904 56.0879 171.272 56.0879 171.713C56.0879 172.178 56.1618 172.57 56.3098 172.864C56.4577 173.183 56.6549 173.428 56.9261 173.648C57.1973 173.844 57.5178 174.016 57.8876 174.163C58.2575 174.285 58.6766 174.408 59.1204 174.506C59.5641 174.604 59.9339 174.702 60.2298 174.775C60.5256 174.873 60.7229 174.947 60.8955 175.045C61.0434 175.143 61.142 175.241 61.216 175.363C61.2653 175.486 61.2899 175.608 61.2899 175.755C61.2899 176.123 61.142 176.368 60.8708 176.539C60.5996 176.711 60.1805 176.784 59.5888 176.784C59.1203 176.784 58.6766 176.711 58.2575 176.539C57.8383 176.368 57.4685 176.098 57.1233 175.731L55.7181 176.931C56.0879 177.446 56.6056 177.862 57.2713 178.181C57.937 178.475 58.6766 178.646 59.4902 178.646C60.1558 178.646 60.7229 178.573 61.1913 178.426C61.6597 178.279 62.0542 178.083 62.3747 177.813C62.6952 177.544 62.9171 177.225 63.065 176.882C63.213 176.49 63.2869 176.074 63.2869 175.633ZM66.7878 178.475V169.116H64.8648V178.45H66.7878V178.475ZM76.6002 178.475V169.116H74.7018V173.06C74.7018 173.183 74.7018 173.354 74.7018 173.55C74.7018 173.746 74.7018 173.942 74.7018 174.138C74.7018 174.334 74.7018 174.53 74.7018 174.702C74.7018 174.873 74.7018 174.996 74.7018 175.094C74.6279 174.971 74.5293 174.8 74.406 174.604C74.2827 174.408 74.1348 174.212 74.0362 174.04L70.6339 169.116H68.7848V178.45H70.6832V174.334C70.6832 174.212 70.6832 174.04 70.6832 173.844C70.6832 173.648 70.6832 173.452 70.6832 173.256C70.6832 173.06 70.6832 172.864 70.6832 172.693C70.6832 172.521 70.6832 172.399 70.6832 172.301C70.7572 172.423 70.8558 172.595 70.979 172.791C71.1023 172.987 71.2502 173.183 71.3489 173.354L74.8991 178.45H76.6002V178.475ZM93.7103 175.633C93.7103 175.118 93.6117 174.702 93.4144 174.383C93.2172 174.065 92.9707 173.771 92.6748 173.575C92.379 173.354 92.0338 173.183 91.6393 173.085C91.2695 172.962 90.875 172.864 90.4806 172.766C90.0861 172.668 89.7656 172.595 89.5191 172.521C89.2725 172.448 89.0753 172.374 88.9274 172.301C88.7794 172.227 88.6808 172.129 88.6068 172.031C88.5575 171.933 88.5082 171.811 88.5082 171.639C88.5082 171.541 88.5329 171.419 88.5822 171.321C88.6315 171.223 88.7055 171.125 88.8288 171.051C88.9274 170.978 89.0753 170.904 89.2479 170.855C89.4204 170.806 89.6423 170.782 89.8889 170.782C90.3327 170.782 90.7271 170.855 91.0723 171.027C91.4174 171.198 91.7626 171.419 92.0831 171.737L93.4884 170.439C93.02 169.974 92.5269 169.606 91.9598 169.361C91.3928 169.092 90.7271 168.969 89.9875 168.969C89.5191 168.969 89.0506 169.043 88.6315 169.165C88.2124 169.288 87.8426 169.459 87.5467 169.704C87.2262 169.949 86.9797 170.219 86.8071 170.561C86.6345 170.904 86.5359 171.272 86.5359 171.713C86.5359 172.178 86.6099 172.57 86.7578 172.864C86.9057 173.183 87.1029 173.428 87.3741 173.648C87.6453 173.844 87.9659 174.016 88.3357 174.163C88.7055 174.285 89.1246 174.408 89.5684 174.506C90.0122 174.604 90.382 174.702 90.6778 174.775C90.9737 174.873 91.1709 174.947 91.3435 175.045C91.4914 175.143 91.59 175.241 91.664 175.363C91.7133 175.486 91.7379 175.608 91.7379 175.755C91.7379 176.123 91.59 176.368 91.3435 176.539C91.0723 176.711 90.6532 176.784 90.0615 176.784C89.593 176.784 89.1492 176.711 88.7301 176.539C88.311 176.368 87.9412 176.098 87.596 175.731L86.1907 176.931C86.5606 177.446 87.0783 177.862 87.7439 178.181C88.4096 178.475 89.1492 178.646 89.9628 178.646C90.6285 178.646 91.1956 178.573 91.664 178.426C92.1324 178.279 92.5269 178.083 92.8474 177.813C93.1679 177.544 93.3898 177.225 93.5377 176.882C93.6363 176.49 93.7103 176.074 93.7103 175.633ZM101.994 175.633C101.994 175.118 101.896 174.702 101.698 174.383C101.501 174.065 101.254 173.771 100.959 173.575C100.638 173.354 100.293 173.183 99.9232 173.085C99.5287 172.962 99.1589 172.864 98.7644 172.766C98.3699 172.668 98.0494 172.595 97.8029 172.521C97.5564 172.448 97.3591 172.374 97.2112 172.301C97.0633 172.227 96.9646 172.129 96.8907 172.031C96.8414 171.933 96.7921 171.811 96.7921 171.639C96.7921 171.541 96.8167 171.419 96.866 171.321C96.9153 171.223 96.9893 171.125 97.1126 171.051C97.2112 170.978 97.3591 170.904 97.5317 170.855C97.7043 170.806 97.9262 170.782 98.1727 170.782C98.6165 170.782 99.0109 170.855 99.3561 171.027C99.7013 171.198 100.046 171.419 100.367 171.737L101.748 170.439C101.279 169.974 100.786 169.606 100.219 169.361C99.652 169.092 98.9863 168.969 98.2467 168.969C97.7782 168.969 97.3098 169.043 96.8907 169.165C96.4716 169.288 96.1018 169.459 95.8059 169.704C95.4854 169.949 95.2389 170.219 95.0663 170.561C94.8937 170.904 94.7951 171.272 94.7951 171.713C94.7951 172.178 94.869 172.57 95.017 172.864C95.1649 173.183 95.3621 173.428 95.6333 173.648C95.9045 173.844 96.225 174.016 96.5948 174.163C96.9647 174.285 97.3838 174.408 97.8276 174.506C98.2713 174.604 98.6411 174.702 98.937 174.775C99.2328 174.873 99.4301 174.947 99.6027 175.045C99.7506 175.143 99.8492 175.241 99.9232 175.363C99.9725 175.486 99.9971 175.608 99.9971 175.755C99.9971 176.123 99.8738 176.368 99.6027 176.539C99.3315 176.711 98.9123 176.784 98.3206 176.784C97.8522 176.784 97.4084 176.711 96.9893 176.539C96.5702 176.368 96.2004 176.098 95.8552 175.731L94.4746 176.931C94.8444 177.446 95.3621 177.862 96.0278 178.181C96.6934 178.475 97.4331 178.646 98.2467 178.646C98.9123 178.646 99.4794 178.573 99.9478 178.426C100.416 178.279 100.811 178.083 101.131 177.813C101.452 177.544 101.674 177.225 101.822 176.882C101.92 176.49 101.994 176.074 101.994 175.633ZM45.6098 139.718H38.0163V133.397H45.6098C51.1817 133.397 50.8612 139.718 45.6098 139.718ZM71.6201 139.718H64.0265V133.397H71.6201C77.2166 133.397 76.8714 139.718 71.6201 139.718ZM97.6303 139.718H90.0368V133.397H97.6303C103.227 133.397 102.882 139.718 97.6303 139.718ZM45.0921 128.448H38.0163V122.544H44.8209C49.0614 122.544 49.234 128.448 45.0921 128.448ZM71.1023 128.448H64.0265V122.544H70.8311C75.0963 122.544 75.2442 128.448 71.1023 128.448ZM97.1372 128.448H90.0615V122.544H96.866C101.107 122.544 101.254 128.448 97.1372 128.448ZM55.5455 136.19C55.0031 132.564 53.5238 131.682 50.59 130.408C52.8089 129.11 54.1895 127.199 54.1895 124.602C54.1895 119.384 49.8997 117.253 45.1907 117.253H32.0746V144.936H45.0674C50.6146 144.936 56.4823 142.535 55.5455 136.19ZM81.5557 136.19C81.0133 132.564 79.5341 131.682 76.6002 130.408C78.8191 129.11 80.1998 127.199 80.1998 124.602C80.1998 119.384 75.9099 117.253 71.2009 117.253H58.0849V144.936H71.0777C76.6249 144.936 82.5173 142.535 81.5557 136.19ZM107.591 136.19C107.048 132.564 105.569 131.682 102.635 130.408C104.854 129.11 106.235 127.199 106.235 124.602C106.235 119.384 101.945 117.253 97.2358 117.253H84.1198V144.936H97.1126C102.66 144.936 108.528 142.535 107.591 136.19ZM110.105 144.03C110.105 143.907 110.081 143.809 110.056 143.711C110.031 143.613 109.982 143.54 109.908 143.466C109.834 143.393 109.736 143.319 109.612 143.27C109.489 143.197 109.341 143.148 109.169 143.074C108.996 143.025 108.873 142.976 108.774 142.927C108.675 142.878 108.601 142.829 108.552 142.78C108.503 142.731 108.454 142.682 108.454 142.633C108.429 142.584 108.429 142.511 108.429 142.462C108.429 142.388 108.429 142.339 108.454 142.29C108.478 142.241 108.503 142.192 108.577 142.143C108.626 142.094 108.7 142.07 108.774 142.045C108.848 142.021 108.947 141.996 109.07 141.996C109.242 141.996 109.366 142.021 109.489 142.07C109.612 142.119 109.736 142.192 109.834 142.29L110.056 142.021C109.933 141.923 109.785 141.825 109.612 141.776C109.464 141.727 109.267 141.678 109.07 141.678C108.922 141.678 108.774 141.702 108.651 141.727C108.527 141.751 108.429 141.825 108.33 141.874C108.232 141.947 108.182 142.021 108.133 142.119C108.084 142.217 108.059 142.339 108.059 142.462C108.059 142.584 108.084 142.682 108.108 142.756C108.133 142.854 108.182 142.927 108.256 143.001C108.33 143.074 108.429 143.148 108.552 143.197C108.675 143.246 108.823 143.319 108.996 143.368C109.144 143.417 109.267 143.466 109.366 143.515C109.464 143.564 109.538 143.613 109.612 143.662C109.662 143.711 109.711 143.76 109.736 143.834C109.76 143.883 109.76 143.956 109.76 144.03C109.76 144.201 109.686 144.324 109.563 144.422C109.44 144.52 109.267 144.568 109.045 144.568C108.873 144.568 108.725 144.544 108.577 144.471C108.429 144.397 108.306 144.324 108.182 144.201L107.936 144.471C108.059 144.593 108.232 144.691 108.404 144.789C108.601 144.862 108.799 144.911 109.021 144.911C109.193 144.911 109.341 144.887 109.464 144.838C109.588 144.789 109.711 144.74 109.81 144.667C109.908 144.593 109.982 144.495 110.031 144.397C110.081 144.275 110.105 144.152 110.105 144.03ZM113.458 144.862V141.727H113.064L112.3 143.589C112.275 143.638 112.25 143.687 112.226 143.736C112.201 143.785 112.176 143.858 112.152 143.907C112.127 143.956 112.102 144.03 112.102 144.079C112.078 144.128 112.078 144.177 112.053 144.201C112.053 144.177 112.028 144.128 112.004 144.079C111.979 144.03 111.954 143.981 111.954 143.932C111.93 143.883 111.905 143.809 111.88 143.76C111.856 143.711 111.831 143.662 111.807 143.613L111.042 141.751H110.672V144.862H111.018V142.756V142.413C111.018 142.437 111.042 142.486 111.042 142.511C111.067 142.56 111.067 142.609 111.092 142.633C111.116 142.682 111.116 142.731 111.141 142.78C111.166 142.829 111.19 142.878 111.19 142.903L112.028 144.911L112.891 142.903C112.916 142.854 112.916 142.805 112.941 142.78C112.965 142.731 112.99 142.682 112.99 142.633C113.015 142.584 113.015 142.535 113.039 142.511C113.064 142.462 113.064 142.437 113.064 142.413V142.756V144.862H113.458Z" fill="#003066"/>
  </g>
  <path d="M 197.097 107.566 L 193.193 107.566 L 199.142 90.401 L 203.837 90.401 L 209.777 107.566 L 205.873 107.566 L 201.556 94.323 L 201.422 94.323 L 197.097 107.566 Z M 196.853 100.819 L 206.075 100.819 L 206.075 103.652 L 196.853 103.652 L 196.853 100.819 Z" fill="#003066"/>
  <path d="M238.438 76.959C237.883 76.959 237.406 76.7634 237.008 76.3723C236.615 75.9755 236.419 75.5005 236.419 74.9473C236.419 74.3997 236.615 73.9303 237.008 73.5392C237.406 73.148 237.883 72.9524 238.438 72.9524C238.977 72.9524 239.448 73.148 239.852 73.5392C240.256 73.9303 240.458 74.3997 240.458 74.9473C240.458 75.3161 240.362 75.6542 240.171 75.9615C239.986 76.2633 239.742 76.5064 239.439 76.6908C239.137 76.8696 238.803 76.959 238.438 76.959ZM238.438 67.9401C237.883 67.9401 237.406 67.7445 237.008 67.3534C236.615 66.9622 236.419 66.4872 236.419 65.9284C236.419 65.3808 236.615 64.9142 237.008 64.5287C237.406 64.1375 237.883 63.9419 238.438 63.9419C238.977 63.9419 239.448 64.1375 239.852 64.5287C240.256 64.9142 240.458 65.3808 240.458 65.9284C240.458 66.3028 240.362 66.6437 240.171 66.951C239.986 67.2528 239.742 67.493 239.439 67.6719C239.137 67.8507 238.803 67.9401 238.438 67.9401Z" fill="#003066"/>
  <path d="M227.172 81.8372C226.011 81.8372 225.015 81.678 224.185 81.3595C223.36 81.0466 222.704 80.6191 222.216 80.077C221.728 79.535 221.411 78.9259 221.265 78.2498L224.58 77.8056C224.681 78.0626 224.841 78.3029 225.06 78.5264C225.279 78.7499 225.567 78.9287 225.926 79.0628C226.291 79.2025 226.734 79.2724 227.256 79.2724C228.036 79.2724 228.678 79.0824 229.183 78.7024C229.693 78.328 229.948 77.6994 229.948 76.8165V74.4612H229.797C229.64 74.8188 229.404 75.1569 229.09 75.4754C228.776 75.7939 228.372 76.0537 227.879 76.2549C227.385 76.4561 226.796 76.5567 226.112 76.5567C225.141 76.5567 224.258 76.3331 223.461 75.8861C222.67 75.4335 222.039 74.7434 221.568 73.8158C221.102 72.8826 220.87 71.7035 220.87 70.2786C220.87 68.8202 221.108 67.602 221.585 66.6241C222.062 65.6462 222.695 64.9142 223.486 64.4281C224.283 63.9419 225.155 63.6989 226.103 63.6989C226.827 63.6989 227.433 63.8218 227.921 64.0677C228.409 64.3079 228.801 64.6097 229.099 64.9729C229.401 65.3305 229.634 65.6826 229.797 66.029H229.932V63.8665H233.491V76.8668C233.491 77.962 233.221 78.8784 232.683 79.616C232.144 80.3536 231.398 80.9069 230.445 81.2757C229.497 81.65 228.406 81.8372 227.172 81.8372ZM227.247 73.8745C227.825 73.8745 228.313 73.732 228.712 73.447C229.115 73.1564 229.424 72.7429 229.637 72.2065C229.856 71.6644 229.965 71.0162 229.965 70.2619C229.965 69.5075 229.859 68.8537 229.646 68.3005C229.432 67.7417 229.124 67.3086 228.72 67.0013C228.316 66.694 227.825 66.5403 227.247 66.5403C226.659 66.5403 226.162 66.6996 225.758 67.0181C225.354 67.331 225.049 67.7669 224.841 68.3257C224.634 68.8844 224.53 69.5298 224.53 70.2619C224.53 71.0051 224.634 71.6477 224.841 72.1897C225.054 72.7261 225.36 73.1424 225.758 73.4386C226.162 73.7292 226.659 73.8745 227.247 73.8745Z" fill="#003066"/>
  <path d="M210.194 69.2979V76.7411H206.61V63.8665H210.026V66.138H210.178C210.464 65.3892 210.943 64.7969 211.616 64.361C212.289 63.9196 213.106 63.6989 214.065 63.6989C214.962 63.6989 215.745 63.8944 216.412 64.2856C217.08 64.6767 217.599 65.2355 217.969 65.962C218.339 66.6828 218.524 67.5433 218.524 68.5436V76.7411H214.94V69.1806C214.946 68.3927 214.744 67.778 214.334 67.3366C213.925 66.8896 213.361 66.666 212.643 66.666C212.16 66.666 211.734 66.7694 211.364 66.9762C210.999 67.1829 210.713 67.4847 210.506 67.8814C210.304 68.2726 210.2 68.7447 210.194 69.2979Z" fill="#003066"/>
  <path d="M200.154 76.7411V63.8665H203.739V76.7411H200.154ZM201.955 62.2069C201.422 62.2069 200.965 62.0309 200.583 61.6788C200.208 61.3212 200.02 60.8937 200.02 60.3964C200.02 59.9047 200.208 59.4828 200.583 59.1307C200.965 58.7731 201.422 58.5943 201.955 58.5943C202.488 58.5943 202.942 58.7731 203.318 59.1307C203.699 59.4828 203.89 59.9047 203.89 60.3964C203.89 60.8937 203.699 61.3212 203.318 61.6788C202.942 62.0309 202.488 62.2069 201.955 62.2069Z" fill="#003066"/>
  <path d="M197.819 63.8665V66.5487H190.036V63.8665H197.819ZM191.803 60.782H195.388V72.7848C195.388 73.1145 195.438 73.3715 195.539 73.5559C195.64 73.7348 195.78 73.8605 195.96 73.9331C196.145 74.0058 196.358 74.0421 196.599 74.0421C196.768 74.0421 196.936 74.0281 197.104 74.0002C197.272 73.9666 197.401 73.9415 197.491 73.9247L198.055 76.5818C197.875 76.6377 197.623 76.7019 197.298 76.7746C196.972 76.8528 196.577 76.9003 196.111 76.9171C195.247 76.9506 194.49 76.836 193.84 76.5734C193.194 76.3108 192.692 75.9029 192.333 75.3497C191.974 74.7965 191.798 74.098 191.803 73.2542V60.782Z" fill="#003066"/>
  <path d="M180.886 76.9841C180.061 76.9841 179.327 76.8416 178.682 76.5567C178.036 76.2661 177.526 75.8386 177.15 75.2742C176.78 74.7043 176.595 73.9946 176.595 73.1452C176.595 72.43 176.727 71.8293 176.99 71.3431C177.254 70.857 177.613 70.4658 178.067 70.1697C178.522 69.8735 179.038 69.65 179.615 69.4991C180.199 69.3482 180.81 69.2421 181.45 69.1806C182.201 69.1024 182.807 69.0297 183.267 68.9627C183.727 68.89 184.061 68.7839 184.268 68.6442C184.476 68.5045 184.58 68.2977 184.58 68.0239V67.9736C184.58 67.4428 184.412 67.032 184.075 66.7415C183.744 66.4509 183.273 66.3056 182.661 66.3056C182.016 66.3056 181.503 66.4481 181.122 66.7331C180.74 67.0125 180.488 67.3645 180.364 67.7892L177.049 67.521C177.217 66.7387 177.548 66.0625 178.042 65.4926C178.536 64.917 179.172 64.4756 179.952 64.1682C180.737 63.8553 181.646 63.6989 182.678 63.6989C183.396 63.6989 184.083 63.7827 184.74 63.9503C185.402 64.1179 185.988 64.3778 186.498 64.7298C187.014 65.0819 187.421 65.5345 187.718 66.0877C188.016 66.6353 188.164 67.2919 188.164 68.0574V76.7411H184.765V74.9557H184.664C184.456 75.358 184.179 75.7129 183.831 76.0202C183.483 76.322 183.065 76.5595 182.577 76.7327C182.089 76.9003 181.525 76.9841 180.886 76.9841ZM181.913 74.5199C182.44 74.5199 182.905 74.4165 183.309 74.2097C183.713 73.9974 184.03 73.7124 184.26 73.3548C184.49 72.9972 184.605 72.592 184.605 72.1394V70.7732C184.493 70.8458 184.339 70.9129 184.142 70.9743C183.952 71.0302 183.736 71.0833 183.494 71.1336C183.253 71.1783 183.012 71.2202 182.771 71.2593C182.53 71.2928 182.311 71.3236 182.114 71.3515C181.694 71.413 181.326 71.5108 181.012 71.6449C180.698 71.779 180.454 71.9606 180.28 72.1897C180.106 72.4132 180.019 72.6926 180.019 73.0279C180.019 73.514 180.196 73.8856 180.549 74.1427C180.908 74.3941 181.363 74.5199 181.913 74.5199Z" fill="#003066"/>
  <path d="M161.719 76.741V59.575H168.517C169.819 59.575 170.929 59.8068 171.849 60.2706C172.775 60.7289 173.479 61.3798 173.961 62.2236C174.449 63.0618 174.693 64.0481 174.693 65.1824C174.693 66.3224 174.446 67.303 173.953 68.1245C173.459 68.9403 172.744 69.5662 171.807 70.002C170.876 70.4379 169.749 70.6558 168.425 70.6558H163.873V67.7389H167.836C168.531 67.7389 169.109 67.6439 169.569 67.4539C170.029 67.2639 170.371 66.9789 170.596 66.599C170.826 66.219 170.941 65.7468 170.941 65.1824C170.941 64.6125 170.826 64.1319 170.596 63.7407C170.371 63.3496 170.026 63.0534 169.561 62.8523C169.101 62.6455 168.52 62.5421 167.819 62.5421H165.362V76.741H161.719ZM171.025 68.9291L175.307 76.741H171.286L167.095 68.9291H171.025Z" fill="#003066"/>
  <path d="M210.426 46.164V28.9979H217.325C218.593 28.9979 219.65 29.1851 220.497 29.5595C221.344 29.9338 221.981 30.4535 222.407 31.1185C222.834 31.7779 223.047 32.5378 223.047 33.3984C223.047 34.0689 222.912 34.6584 222.643 35.1669C222.374 35.6698 222.004 36.0833 221.532 36.4074C221.067 36.726 220.534 36.9523 219.934 37.0864V37.254C220.59 37.282 221.204 37.4664 221.776 37.8072C222.354 38.1481 222.823 38.6259 223.182 39.2405C223.541 39.8496 223.72 40.576 223.72 41.4198C223.72 42.3306 223.493 43.1437 223.038 43.8589C222.59 44.5686 221.925 45.1302 221.044 45.5437C220.164 45.9572 219.078 46.164 217.788 46.164H210.426ZM214.069 43.1968H217.039C218.055 43.1968 218.795 43.004 219.261 42.6184C219.726 42.2273 219.959 41.7076 219.959 41.0594C219.959 40.5844 219.844 40.1653 219.614 39.8021C219.384 39.4389 219.056 39.1539 218.629 38.9472C218.209 38.7404 217.707 38.637 217.123 38.637H214.069V43.1968ZM214.069 36.1811H216.77C217.269 36.1811 217.712 36.0945 218.099 35.9213C218.492 35.7425 218.801 35.491 219.025 35.1669C219.255 34.8428 219.37 34.4545 219.37 34.0018C219.37 33.3816 219.148 32.8815 218.705 32.5015C218.268 32.1215 217.645 31.9315 216.837 31.9315H214.069V36.1811Z" fill="#003066"/>
  <path d="M194.761 46.164V28.9979H201.66C202.928 28.9979 203.985 29.1851 204.832 29.5595C205.679 29.9338 206.316 30.4535 206.742 31.1185C207.169 31.7779 207.382 32.5378 207.382 33.3984C207.382 34.0689 207.247 34.6584 206.978 35.1669C206.709 35.6698 206.338 36.0833 205.867 36.4074C205.402 36.726 204.869 36.9523 204.269 37.0864V37.254C204.925 37.282 205.539 37.4664 206.111 37.8072C206.689 38.1481 207.157 38.6259 207.516 39.2405C207.875 39.8496 208.055 40.576 208.055 41.4198C208.055 42.3306 207.828 43.1437 207.373 43.8589C206.925 44.5686 206.26 45.1302 205.379 45.5437C204.499 45.9572 203.413 46.164 202.123 46.164H194.761ZM198.404 43.1968H201.374C202.389 43.1968 203.13 43.004 203.596 42.6184C204.061 42.2273 204.294 41.7076 204.294 41.0594C204.294 40.5844 204.179 40.1653 203.949 39.8021C203.719 39.4389 203.391 39.1539 202.964 38.9472C202.544 38.7404 202.042 38.637 201.458 38.637H198.404V43.1968ZM198.404 36.1811H201.105C201.604 36.1811 202.047 36.0945 202.434 35.9213C202.827 35.7425 203.136 35.491 203.36 35.1669C203.59 34.8428 203.705 34.4545 203.705 34.0018C203.705 33.3816 203.483 32.8815 203.04 32.5015C202.603 32.1215 201.98 31.9315 201.172 31.9315H198.404V36.1811Z" fill="#003066"/>
  <path d="M179.096 46.164V28.9979H185.995C187.263 28.9979 188.321 29.1851 189.168 29.5595C190.015 29.9338 190.651 30.4535 191.078 31.1185C191.504 31.7779 191.717 32.5378 191.717 33.3984C191.717 34.0689 191.582 34.6584 191.313 35.1669C191.044 35.6698 190.674 36.0833 190.203 36.4074C189.737 36.726 189.204 36.9523 188.604 37.0864V37.254C189.26 37.282 189.874 37.4664 190.447 37.8072C191.024 38.1481 191.493 38.6259 191.852 39.2405C192.211 39.8496 192.39 40.576 192.39 41.4198C192.39 42.3306 192.163 43.1437 191.709 43.8589C191.26 44.5686 190.595 45.1302 189.715 45.5437C188.834 45.9572 187.748 46.164 186.458 46.164H179.096ZM182.739 43.1968H185.709C186.725 43.1968 187.465 43.004 187.931 42.6184C188.396 42.2273 188.629 41.7076 188.629 41.0594C188.629 40.5844 188.514 40.1653 188.284 39.8021C188.054 39.4389 187.726 39.1539 187.3 38.9472C186.879 38.7404 186.377 38.637 185.794 38.637H182.739V43.1968ZM182.739 36.1811H185.44C185.939 36.1811 186.383 36.0945 186.77 35.9213C187.162 35.7425 187.471 35.491 187.695 35.1669C187.925 34.8428 188.04 34.4545 188.04 34.0018C188.04 33.3816 187.819 32.8815 187.375 32.5015C186.938 32.1215 186.315 31.9315 185.507 31.9315H182.739V36.1811Z" fill="#003066"/>
  <path d="M260.384 141.8C259.712 141.8 259.109 141.672 258.574 141.416C258.042 141.156 257.617 140.801 257.299 140.349C256.982 139.897 256.812 139.382 256.791 138.802H258.397C258.436 139.271 258.645 139.657 259.024 139.96C259.402 140.262 259.855 140.413 260.384 140.413C260.805 140.413 261.178 140.317 261.503 140.125C261.831 139.929 262.088 139.661 262.274 139.319C262.463 138.978 262.557 138.589 262.557 138.151C262.557 137.707 262.461 137.31 262.268 136.962C262.076 136.613 261.81 136.34 261.471 136.14C261.135 135.941 260.749 135.84 260.314 135.836C259.982 135.836 259.648 135.893 259.313 136.007C258.977 136.121 258.706 136.27 258.499 136.455L256.984 136.231L257.599 130.727H263.628V132.14H258.975L258.627 135.196H258.692C258.906 134.99 259.19 134.818 259.543 134.679C259.9 134.54 260.282 134.471 260.689 134.471C261.356 134.471 261.951 134.629 262.472 134.946C262.997 135.262 263.409 135.694 263.709 136.242C264.012 136.786 264.162 137.412 264.158 138.119C264.162 138.827 264.001 139.458 263.677 140.013C263.355 140.568 262.909 141.005 262.338 141.325C261.77 141.641 261.119 141.8 260.384 141.8Z" fill="#003066"/>
  <path d="M247.517 141.65V140.456L251.227 136.626C251.624 136.21 251.95 135.845 252.207 135.532C252.468 135.216 252.662 134.915 252.791 134.631C252.919 134.346 252.984 134.044 252.984 133.724C252.984 133.361 252.898 133.049 252.727 132.785C252.555 132.519 252.321 132.314 252.025 132.172C251.729 132.026 251.395 131.953 251.024 131.953C250.631 131.953 250.289 132.033 249.996 132.193C249.703 132.353 249.478 132.579 249.321 132.871C249.164 133.162 249.086 133.504 249.086 133.895H247.506C247.506 133.23 247.66 132.648 247.967 132.151C248.274 131.653 248.695 131.267 249.23 130.993C249.766 130.716 250.374 130.577 251.056 130.577C251.745 130.577 252.352 130.714 252.877 130.988C253.405 131.258 253.817 131.628 254.113 132.097C254.41 132.563 254.558 133.089 254.558 133.676C254.558 134.082 254.481 134.478 254.328 134.866C254.178 135.253 253.915 135.685 253.541 136.162C253.166 136.635 252.645 137.209 251.977 137.885L249.798 140.157V140.237H254.735V141.65H247.517Z" fill="#003066"/>
  <path d="M241.602 141.832C240.756 141.828 240.033 141.606 239.433 141.165C238.833 140.724 238.375 140.082 238.057 139.239C237.739 138.397 237.58 137.381 237.58 136.194C237.58 135.01 237.739 133.998 238.057 133.159C238.378 132.32 238.839 131.679 239.438 131.239C240.042 130.798 240.763 130.577 241.602 130.577C242.44 130.577 243.16 130.799 243.759 131.244C244.359 131.685 244.818 132.325 245.136 133.164C245.457 134 245.617 135.01 245.617 136.194C245.617 137.385 245.459 138.402 245.141 139.245C244.823 140.084 244.364 140.726 243.765 141.17C243.165 141.611 242.444 141.832 241.602 141.832ZM241.602 140.408C242.344 140.408 242.924 140.047 243.342 139.325C243.763 138.603 243.974 137.559 243.974 136.194C243.974 135.287 243.877 134.521 243.684 133.895C243.495 133.265 243.222 132.789 242.865 132.465C242.512 132.138 242.091 131.975 241.602 131.975C240.863 131.975 240.283 132.337 239.861 133.063C239.44 133.788 239.228 134.832 239.224 136.194C239.224 137.104 239.319 137.874 239.508 138.503C239.701 139.129 239.974 139.604 240.327 139.928C240.681 140.248 241.105 140.408 241.602 140.408Z" fill="#003066"/>
  <path d="M228.537 141.65V140.456L232.248 136.626C232.644 136.21 232.97 135.845 233.227 135.532C233.488 135.216 233.683 134.915 233.811 134.631C233.94 134.346 234.004 134.044 234.004 133.724C234.004 133.361 233.918 133.049 233.747 132.785C233.575 132.519 233.342 132.314 233.045 132.172C232.749 132.026 232.415 131.953 232.044 131.953C231.651 131.953 231.309 132.033 231.016 132.193C230.723 132.353 230.498 132.579 230.341 132.871C230.184 133.162 230.106 133.504 230.106 133.895H228.526C228.526 133.23 228.68 132.648 228.987 132.151C229.294 131.653 229.715 131.267 230.25 130.993C230.786 130.716 231.394 130.577 232.076 130.577C232.765 130.577 233.372 130.714 233.897 130.988C234.425 131.258 234.837 131.628 235.134 132.097C235.43 132.563 235.578 133.089 235.578 133.676C235.578 134.082 235.501 134.478 235.348 134.866C235.198 135.253 234.935 135.685 234.561 136.162C234.186 136.635 233.665 137.209 232.997 137.885L230.818 140.157V140.237H235.755V141.65H228.537Z" fill="#003066"/>
  <path d="M227.198 130.214L223.664 143.293H222.235L225.769 130.214H227.198Z" fill="#003066"/>
  <path d="M217.27 141.8C216.599 141.8 215.995 141.672 215.46 141.416C214.928 141.156 214.503 140.801 214.186 140.349C213.868 139.897 213.698 139.382 213.677 138.802H215.283C215.322 139.271 215.531 139.657 215.91 139.96C216.288 140.262 216.741 140.413 217.27 140.413C217.691 140.413 218.064 140.317 218.389 140.125C218.717 139.929 218.974 139.661 219.16 139.319C219.349 138.978 219.444 138.589 219.444 138.151C219.444 137.707 219.347 137.31 219.154 136.962C218.962 136.613 218.696 136.34 218.357 136.14C218.021 135.941 217.636 135.84 217.2 135.836C216.868 135.836 216.534 135.893 216.199 136.007C215.863 136.121 215.592 136.27 215.385 136.455L213.87 136.231L214.485 130.727H220.514V132.14H215.861L215.513 135.196H215.578C215.792 134.99 216.076 134.818 216.429 134.679C216.786 134.54 217.168 134.471 217.575 134.471C218.242 134.471 218.837 134.629 219.358 134.946C219.883 135.262 220.295 135.694 220.595 136.242C220.898 136.786 221.048 137.412 221.045 138.119C221.048 138.827 220.887 139.458 220.563 140.013C220.241 140.568 219.795 141.005 219.224 141.325C218.656 141.641 218.005 141.8 217.27 141.8Z" fill="#003066"/>
  <path d="M207.735 141.832C206.889 141.828 206.166 141.606 205.566 141.165C204.967 140.724 204.508 140.082 204.19 139.239C203.873 138.397 203.714 137.381 203.714 136.194C203.714 135.01 203.873 133.998 204.19 133.159C204.512 132.32 204.972 131.679 205.572 131.239C206.175 130.798 206.896 130.577 207.735 130.577C208.574 130.577 209.293 130.799 209.893 131.244C210.492 131.685 210.951 132.325 211.269 133.164C211.59 134 211.751 135.01 211.751 136.194C211.751 137.385 211.592 138.402 211.274 139.245C210.956 140.084 210.498 140.726 209.898 141.17C209.298 141.611 208.577 141.832 207.735 141.832ZM207.735 140.408C208.477 140.408 209.057 140.047 209.475 139.325C209.896 138.603 210.107 137.559 210.107 136.194C210.107 135.287 210.011 134.521 209.818 133.895C209.629 133.265 209.356 132.789 208.999 132.465C208.645 132.138 208.224 131.975 207.735 131.975C206.996 131.975 206.416 132.337 205.995 133.063C205.574 133.788 205.361 134.832 205.358 136.194C205.358 137.104 205.452 137.874 205.641 138.503C205.834 139.129 206.107 139.604 206.461 139.928C206.814 140.248 207.239 140.408 207.735 140.408Z" fill="#003066"/>
  <path d="M202.579 130.214L199.045 143.293H197.615L201.149 130.214H202.579Z" fill="#003066"/>
  <path d="M192.465 141.832C191.62 141.828 190.897 141.606 190.297 141.165C189.697 140.724 189.239 140.082 188.921 139.239C188.603 138.397 188.444 137.381 188.444 136.194C188.444 135.01 188.603 133.998 188.921 133.159C189.242 132.32 189.703 131.679 190.302 131.239C190.906 130.798 191.627 130.577 192.465 130.577C193.304 130.577 194.024 130.799 194.623 131.244C195.223 131.685 195.682 132.325 195.999 133.164C196.321 134 196.481 135.01 196.481 136.194C196.481 137.385 196.322 138.402 196.005 139.245C195.687 140.084 195.228 140.726 194.629 141.17C194.029 141.611 193.308 141.832 192.465 141.832ZM192.465 140.408C193.208 140.408 193.788 140.047 194.206 139.325C194.627 138.603 194.837 137.559 194.837 136.194C194.837 135.287 194.741 134.521 194.548 133.895C194.359 133.265 194.086 132.789 193.729 132.465C193.376 132.138 192.955 131.975 192.465 131.975C191.727 131.975 191.147 132.337 190.725 133.063C190.304 133.788 190.092 134.832 190.088 136.194C190.088 137.104 190.183 137.874 190.372 138.503C190.565 139.129 190.838 139.604 191.191 139.928C191.545 140.248 191.969 140.408 192.465 140.408Z" fill="#003066"/>
  <path d="M179.401 141.65V140.456L183.111 136.626C183.508 136.21 183.834 135.845 184.091 135.532C184.352 135.216 184.546 134.915 184.675 134.631C184.803 134.346 184.868 134.044 184.868 133.724C184.868 133.361 184.782 133.049 184.611 132.785C184.439 132.519 184.206 132.314 183.909 132.172C183.613 132.026 183.279 131.953 182.908 131.953C182.515 131.953 182.173 132.033 181.88 132.193C181.587 132.353 181.362 132.579 181.205 132.871C181.048 133.162 180.97 133.504 180.97 133.895H179.39C179.39 133.23 179.544 132.648 179.851 132.151C180.158 131.653 180.579 131.267 181.114 130.993C181.65 130.716 182.258 130.577 182.94 130.577C183.629 130.577 184.236 130.714 184.761 130.988C185.289 131.258 185.701 131.628 185.997 132.097C186.294 132.563 186.442 133.089 186.442 133.676C186.442 134.082 186.365 134.478 186.212 134.866C186.062 135.253 185.799 135.685 185.425 136.162C185.05 136.635 184.529 137.209 183.861 137.885L181.682 140.157V140.237H186.619V141.65H179.401Z" fill="#003066"/>
  <path d="M173.78 133.457V134.738H169.132V133.457H173.78ZM170.407 141.65V132.508C170.407 131.996 170.519 131.571 170.744 131.233C170.969 130.892 171.267 130.638 171.638 130.47C172.01 130.3 172.413 130.214 172.848 130.214C173.17 130.214 173.445 130.241 173.673 130.294C173.901 130.344 174.071 130.39 174.182 130.433L173.807 131.724C173.732 131.703 173.636 131.678 173.518 131.649C173.4 131.617 173.257 131.601 173.089 131.601C172.7 131.601 172.422 131.697 172.254 131.889C172.09 132.081 172.008 132.359 172.008 132.721V141.65H170.407Z" fill="#003066"/>
  <path d="M164.245 141.816C163.474 141.816 162.801 141.64 162.227 141.288C161.652 140.936 161.206 140.443 160.888 139.81C160.57 139.177 160.411 138.438 160.411 137.591C160.411 136.741 160.57 135.998 160.888 135.362C161.206 134.725 161.652 134.231 162.227 133.879C162.801 133.527 163.474 133.351 164.245 133.351C165.016 133.351 165.689 133.527 166.264 133.879C166.839 134.231 167.285 134.725 167.602 135.362C167.92 135.998 168.079 136.741 168.079 137.591C168.079 138.438 167.92 139.177 167.602 139.81C167.285 140.443 166.839 140.936 166.264 141.288C165.689 141.64 165.016 141.816 164.245 141.816ZM164.251 140.477C164.75 140.477 165.164 140.345 165.493 140.082C165.821 139.819 166.064 139.469 166.221 139.031C166.382 138.594 166.462 138.112 166.462 137.586C166.462 137.063 166.382 136.583 166.221 136.146C166.064 135.705 165.821 135.351 165.493 135.084C165.164 134.818 164.75 134.684 164.251 134.684C163.747 134.684 163.33 134.818 162.998 135.084C162.669 135.351 162.425 135.705 162.264 136.146C162.107 136.583 162.029 137.063 162.029 137.586C162.029 138.112 162.107 138.594 162.264 139.031C162.425 139.469 162.669 139.819 162.998 140.082C163.33 140.345 163.747 140.477 164.251 140.477Z" fill="#003066"/>
  <path d="M154.87 135.458L153.419 135.714C153.358 135.529 153.261 135.353 153.129 135.186C153.001 135.019 152.826 134.882 152.605 134.775C152.383 134.668 152.107 134.615 151.775 134.615C151.321 134.615 150.943 134.716 150.64 134.919C150.336 135.118 150.184 135.376 150.184 135.692C150.184 135.966 150.286 136.187 150.49 136.354C150.693 136.521 151.022 136.658 151.475 136.764L152.781 137.063C153.538 137.237 154.102 137.506 154.473 137.869C154.845 138.231 155.03 138.702 155.03 139.282C155.03 139.773 154.887 140.21 154.602 140.594C154.32 140.975 153.925 141.273 153.419 141.49C152.915 141.707 152.332 141.816 151.668 141.816C150.747 141.816 149.995 141.62 149.413 141.229C148.832 140.834 148.475 140.274 148.343 139.549L149.89 139.314C149.986 139.716 150.184 140.02 150.484 140.226C150.784 140.429 151.175 140.53 151.657 140.53C152.182 140.53 152.601 140.422 152.915 140.205C153.229 139.984 153.386 139.716 153.386 139.399C153.386 139.143 153.29 138.928 153.097 138.754C152.908 138.58 152.617 138.448 152.224 138.359L150.832 138.055C150.065 137.881 149.497 137.604 149.13 137.223C148.766 136.843 148.583 136.361 148.583 135.778C148.583 135.294 148.719 134.871 148.99 134.508C149.262 134.146 149.637 133.863 150.115 133.66C150.593 133.454 151.141 133.351 151.759 133.351C152.647 133.351 153.347 133.543 153.858 133.927C154.368 134.307 154.705 134.818 154.87 135.458Z" fill="#003066"/>
  <path d="M139.263 141.65H137.506L141.453 130.727H143.364L147.31 141.65H145.554L142.454 132.711H142.368L139.263 141.65ZM139.557 137.373H145.254V138.759H139.557V137.373Z" fill="#003066"/>
  <path d="M251.76 174.002C250.95 174.002 250.252 173.83 249.667 173.485C249.085 173.136 248.635 172.647 248.318 172.018C248.003 171.385 247.846 170.644 247.846 169.794C247.846 168.954 248.003 168.215 248.318 167.575C248.635 166.935 249.078 166.435 249.645 166.076C250.217 165.717 250.884 165.537 251.648 165.537C252.112 165.537 252.562 165.614 252.997 165.767C253.433 165.919 253.824 166.159 254.17 166.487C254.516 166.814 254.789 167.239 254.989 167.761C255.189 168.281 255.289 168.912 255.289 169.655V170.22H248.751V169.026H253.72C253.72 168.606 253.634 168.234 253.463 167.911C253.292 167.584 253.051 167.326 252.74 167.137C252.433 166.949 252.073 166.855 251.659 166.855C251.209 166.855 250.816 166.965 250.481 167.185C250.149 167.402 249.892 167.687 249.71 168.039C249.531 168.387 249.442 168.766 249.442 169.175V170.108C249.442 170.656 249.538 171.122 249.731 171.506C249.927 171.89 250.2 172.183 250.55 172.386C250.9 172.585 251.309 172.685 251.776 172.685C252.08 172.685 252.357 172.642 252.606 172.557C252.856 172.468 253.072 172.336 253.254 172.162C253.436 171.988 253.576 171.773 253.672 171.516L255.187 171.789C255.066 172.233 254.848 172.622 254.534 172.957C254.223 173.287 253.833 173.545 253.361 173.73C252.894 173.911 252.36 174.002 251.76 174.002Z" fill="#003066"/>
  <path d="M246.062 162.913V173.837H244.461V162.913H246.062Z" fill="#003066"/>
  <path d="M240.706 173.837V165.644H242.307V173.837H240.706ZM241.515 164.38C241.236 164.38 240.997 164.287 240.797 164.102C240.601 163.914 240.503 163.69 240.503 163.43C240.503 163.167 240.601 162.943 240.797 162.758C240.997 162.57 241.236 162.475 241.515 162.475C241.793 162.475 242.03 162.57 242.227 162.758C242.427 162.943 242.527 163.167 242.527 163.43C242.527 163.69 242.427 163.914 242.227 164.102C242.03 164.287 241.793 164.38 241.515 164.38Z" fill="#003066"/>
  <path d="M239.054 165.644V166.924H234.406V165.644H239.054ZM235.681 173.837V164.694C235.681 164.182 235.793 163.757 236.018 163.42C236.243 163.078 236.541 162.824 236.912 162.657C237.284 162.486 237.687 162.401 238.122 162.401C238.444 162.401 238.719 162.427 238.947 162.481C239.175 162.531 239.345 162.577 239.456 162.62L239.081 163.91C239.006 163.889 238.91 163.864 238.792 163.836C238.674 163.804 238.531 163.788 238.363 163.788C237.974 163.788 237.696 163.884 237.528 164.076C237.364 164.268 237.282 164.545 237.282 164.908V173.837H235.681Z" fill="#003066"/>
  <path d="M229.519 174.002C228.748 174.002 228.075 173.826 227.501 173.474C226.926 173.122 226.48 172.63 226.162 171.997C225.844 171.364 225.686 170.624 225.686 169.778C225.686 168.928 225.844 168.185 226.162 167.548C226.48 166.912 226.926 166.417 227.501 166.065C228.075 165.713 228.748 165.537 229.519 165.537C230.29 165.537 230.963 165.713 231.538 166.065C232.113 166.417 232.559 166.912 232.877 167.548C233.194 168.185 233.353 168.928 233.353 169.778C233.353 170.624 233.194 171.364 232.877 171.997C232.559 172.63 232.113 173.122 231.538 173.474C230.963 173.826 230.29 174.002 229.519 174.002ZM229.525 172.663C230.024 172.663 230.438 172.532 230.767 172.269C231.095 172.005 231.338 171.655 231.495 171.218C231.656 170.78 231.736 170.299 231.736 169.772C231.736 169.25 231.656 168.77 231.495 168.332C231.338 167.891 231.095 167.537 230.767 167.271C230.438 167.004 230.024 166.871 229.525 166.871C229.021 166.871 228.604 167.004 228.272 167.271C227.943 167.537 227.699 167.891 227.538 168.332C227.381 168.77 227.303 169.25 227.303 169.772C227.303 170.299 227.381 170.78 227.538 171.218C227.699 171.655 227.943 172.005 228.272 172.269C228.604 172.532 229.021 172.663 229.525 172.663Z" fill="#003066"/>
  <path d="M220.563 173.837V165.644H222.11V166.945H222.196C222.346 166.504 222.61 166.158 222.988 165.905C223.37 165.649 223.802 165.521 224.284 165.521C224.384 165.521 224.502 165.525 224.637 165.532C224.777 165.539 224.886 165.548 224.964 165.559V167.084C224.9 167.066 224.786 167.047 224.621 167.025C224.457 167 224.293 166.988 224.129 166.988C223.75 166.988 223.413 167.068 223.117 167.228C222.824 167.384 222.592 167.603 222.421 167.884C222.249 168.161 222.164 168.478 222.164 168.834V173.837H220.563Z" fill="#003066"/>
  <path d="M211.047 173.837V162.913H214.955C215.809 162.913 216.515 163.068 217.076 163.377C217.636 163.686 218.056 164.109 218.334 164.646C218.613 165.18 218.752 165.781 218.752 166.449C218.752 167.121 218.611 167.726 218.329 168.263C218.05 168.796 217.629 169.219 217.065 169.532C216.505 169.842 215.8 169.996 214.95 169.996H212.262V168.599H214.8C215.339 168.599 215.776 168.506 216.112 168.321C216.448 168.133 216.694 167.877 216.851 167.553C217.008 167.23 217.087 166.862 217.087 166.449C217.087 166.037 217.008 165.67 216.851 165.35C216.694 165.03 216.446 164.78 216.107 164.598C215.771 164.417 215.328 164.326 214.779 164.326H212.701V173.837H211.047Z" fill="#003066"/>
  <path d="M201.141 173.837V165.644H202.688V166.945H202.774C202.924 166.504 203.188 166.158 203.567 165.905C203.948 165.649 204.38 165.521 204.862 165.521C204.962 165.521 205.08 165.525 205.216 165.532C205.355 165.539 205.464 165.548 205.542 165.559V167.084C205.478 167.066 205.364 167.047 205.2 167.025C205.035 167 204.871 166.988 204.707 166.988C204.329 166.988 203.991 167.068 203.695 167.228C203.402 167.384 203.17 167.603 202.999 167.884C202.828 168.161 202.742 168.478 202.742 168.834V173.837H201.141Z" fill="#003066"/>
  <path d="M195.52 174.002C194.749 174.002 194.076 173.826 193.502 173.474C192.927 173.122 192.481 172.63 192.163 171.997C191.845 171.364 191.687 170.624 191.687 169.778C191.687 168.928 191.845 168.185 192.163 167.548C192.481 166.912 192.927 166.417 193.502 166.065C194.076 165.713 194.749 165.537 195.52 165.537C196.291 165.537 196.964 165.713 197.539 166.065C198.114 166.417 198.56 166.912 198.877 167.548C199.195 168.185 199.354 168.928 199.354 169.778C199.354 170.624 199.195 171.364 198.877 171.997C198.56 172.63 198.114 173.122 197.539 173.474C196.964 173.826 196.291 174.002 195.52 174.002ZM195.526 172.663C196.025 172.663 196.439 172.532 196.768 172.269C197.096 172.005 197.339 171.655 197.496 171.218C197.657 170.78 197.737 170.299 197.737 169.772C197.737 169.25 197.657 168.77 197.496 168.332C197.339 167.891 197.096 167.537 196.768 167.271C196.439 167.004 196.025 166.871 195.526 166.871C195.022 166.871 194.605 167.004 194.273 167.271C193.944 167.537 193.7 167.891 193.539 168.332C193.382 168.77 193.304 169.25 193.304 169.772C193.304 170.299 193.382 170.78 193.539 171.218C193.7 171.655 193.944 172.005 194.273 172.269C194.605 172.532 195.022 172.663 195.526 172.663Z" fill="#003066"/>
  <path d="M190.728 165.644V166.924H186.08V165.644H190.728ZM187.355 173.837V164.694C187.355 164.182 187.467 163.757 187.692 163.42C187.917 163.078 188.215 162.824 188.586 162.657C188.957 162.486 189.361 162.401 189.796 162.401C190.118 162.401 190.392 162.427 190.621 162.481C190.849 162.531 191.019 162.577 191.13 162.62L190.755 163.91C190.68 163.889 190.583 163.864 190.466 163.836C190.348 163.804 190.205 163.788 190.037 163.788C189.648 163.788 189.37 163.884 189.202 164.076C189.038 164.268 188.956 164.545 188.956 164.908V173.837H187.355Z" fill="#003066"/>
  <path d="M175.903 171.058L175.892 169.111H176.171L179.447 165.644H181.364L177.627 169.591H177.375L175.903 171.058ZM174.43 173.837V162.913H176.031V173.837H174.43ZM179.624 173.837L176.679 169.943L177.782 168.828L181.589 173.837H179.624Z" fill="#003066"/>
  <path d="M169.34 174.002C168.544 174.002 167.859 173.823 167.284 173.463C166.713 173.101 166.274 172.601 165.967 171.965C165.66 171.328 165.506 170.599 165.506 169.778C165.506 168.946 165.663 168.211 165.977 167.575C166.292 166.935 166.734 166.435 167.305 166.076C167.876 165.717 168.549 165.537 169.324 165.537C169.949 165.537 170.505 165.653 170.994 165.884C171.484 166.111 171.878 166.431 172.178 166.844C172.481 167.256 172.661 167.738 172.719 168.289H171.16C171.075 167.905 170.878 167.575 170.571 167.297C170.268 167.02 169.861 166.881 169.351 166.881C168.904 166.881 168.514 166.999 168.178 167.233C167.846 167.464 167.587 167.795 167.402 168.225C167.216 168.652 167.123 169.157 167.123 169.74C167.123 170.338 167.214 170.853 167.396 171.287C167.578 171.721 167.835 172.057 168.167 172.295C168.503 172.534 168.897 172.653 169.351 172.653C169.654 172.653 169.929 172.598 170.175 172.487C170.425 172.373 170.634 172.212 170.802 172.002C170.973 171.792 171.093 171.54 171.16 171.244H172.719C172.661 171.774 172.488 172.247 172.199 172.663C171.91 173.079 171.523 173.406 171.037 173.645C170.555 173.883 169.99 174.002 169.34 174.002Z" fill="#003066"/>
  <path d="M162.121 173.837V165.644H163.722V173.837H162.121ZM162.929 164.38C162.651 164.38 162.412 164.287 162.212 164.102C162.016 163.914 161.917 163.69 161.917 163.43C161.917 163.167 162.016 162.943 162.212 162.758C162.412 162.57 162.651 162.475 162.929 162.475C163.208 162.475 163.445 162.57 163.641 162.758C163.841 162.943 163.941 163.167 163.941 163.43C163.941 163.69 163.841 163.914 163.641 164.102C163.445 164.287 163.208 164.38 162.929 164.38Z" fill="#003066"/>
  <path d="M159.967 162.913V173.837H158.366V162.913H159.967Z" fill="#003066"/>
  <path d="M156.515 166.465H154.844C154.78 166.11 154.66 165.797 154.485 165.526C154.31 165.256 154.096 165.027 153.843 164.838C153.589 164.65 153.306 164.508 152.991 164.412C152.681 164.316 152.351 164.268 152.001 164.268C151.369 164.268 150.803 164.426 150.303 164.742C149.807 165.059 149.415 165.523 149.126 166.135C148.84 166.746 148.697 167.493 148.697 168.375C148.697 169.264 148.84 170.014 149.126 170.626C149.415 171.237 149.809 171.7 150.309 172.013C150.809 172.325 151.371 172.482 151.995 172.482C152.342 172.482 152.67 172.436 152.981 172.343C153.295 172.247 153.579 172.107 153.832 171.922C154.085 171.737 154.3 171.511 154.475 171.244C154.653 170.974 154.776 170.665 154.844 170.316L156.515 170.322C156.425 170.859 156.252 171.353 155.995 171.804C155.742 172.253 155.415 172.64 155.015 172.967C154.619 173.291 154.166 173.542 153.655 173.719C153.145 173.897 152.588 173.986 151.985 173.986C151.035 173.986 150.189 173.762 149.447 173.314C148.704 172.862 148.119 172.217 147.691 171.378C147.266 170.539 147.053 169.538 147.053 168.375C147.053 167.208 147.268 166.207 147.696 165.372C148.124 164.533 148.71 163.889 149.452 163.441C150.195 162.989 151.039 162.763 151.985 162.763C152.567 162.763 153.109 162.847 153.612 163.014C154.119 163.178 154.575 163.42 154.978 163.74C155.381 164.056 155.715 164.444 155.979 164.902C156.243 165.358 156.422 165.879 156.515 166.465Z" fill="#003066"/>
  <defs>
    <clipPath id="clip0_1128_3596">
      <rect x="16" y="16" width="106.506" height="171" rx="10" fill="white"/>
    </clipPath>
  </defs>
</svg>
